<?xml version="1.0" encoding="UTF-8"?>
<!--!
Some fontawesome icons, some others

Font Awesome Free 6.1.1 by @fontawesome - https://fontawesome.com
License - https://fontawesome.com/license/free (Icons: CC BY 4.0, Fonts: SIL OFL 1.1, Code: MIT License)
Copyright 2022 Fonticons, Inc.
-->
<svg xmlns="http://www.w3.org/2000/svg" style="display: none;">
  <symbol id="shiny" viewBox="0 0 576 512">
    <path d="M381.2 150.3L524.9 171.5C536.8 173.2 546.8 181.6 550.6 193.1C554.4 204.7 551.3 217.3 542.7 225.9L438.5 328.1L463.1 474.7C465.1 486.7 460.2 498.9 450.2 506C440.3 513.1 427.2 514 416.5 508.3L288.1 439.8L159.8 508.3C149 514 135.9 513.1 126 506C116.1 498.9 111.1 486.7 113.2 474.7L137.8 328.1L33.58 225.9C24.97 217.3 21.91 204.7 25.69 193.1C29.46 181.6 39.43 173.2 51.42 171.5L195 150.3L259.4 17.97C264.7 6.954 275.9-.0391 288.1-.0391C300.4-.0391 311.6 6.954 316.9 17.97L381.2 150.3z"></path>
  </symbol>
  <symbol id="square" viewBox="0 0 448 512">
    <path d="M0 96C0 60.65 28.65 32 64 32H384C419.3 32 448 60.65 448 96V416C448 451.3 419.3 480 384 480H64C28.65 480 0 451.3 0 416V96z"></path>
  </symbol>
  <symbol id="square-outline" viewBox="0 0 448 512">
    <path d="M384 32C419.3 32 448 60.65 448 96V416C448 451.3 419.3 480 384 480H64C28.65 480 0 451.3 0 416V96C0 60.65 28.65 32 64 32H384zM384 80H64C55.16 80 48 87.16 48 96V416C48 424.8 55.16 432 64 432H384C392.8 432 400 424.8 400 416V96C400 87.16 392.8 80 384 80z"/>
  </symbol>
  <symbol id="male" viewBox="0 0 448 512">
    <path d="M431.1 31.1l-112.6 0c-21.42 0-32.15 25.85-17 40.97l29.61 29.56l-56.65 56.55c-30.03-20.66-65.04-31-100-31c-47.99-.002-95.96 19.44-131.1 58.39c-60.86 67.51-58.65 175 4.748 240.1C83.66 462.2 129.6 480 175.5 480c45.12 0 90.34-17.18 124.8-51.55c61.11-60.99 67.77-155.6 20.42-224.1l56.65-56.55l29.61 29.56C411.9 182.2 417.9 184.4 423.8 184.4C436.1 184.4 448 174.8 448 160.4V47.1C448 39.16 440.8 31.1 431.1 31.1zM243.5 371.9c-18.75 18.71-43.38 28.07-68 28.07c-24.63 0-49.25-9.355-68.01-28.07c-37.5-37.43-37.5-98.33 0-135.8c18.75-18.71 43.38-28.07 68.01-28.07c24.63 0 49.25 9.357 68 28.07C281 273.5 281 334.5 243.5 371.9z"></path>
  </symbol>
  <symbol id="female" viewBox="0 0 384 512">
    <path d="M368 176c0-97.2-78.8-176-176-176c-97.2 0-176 78.8-176 176c0 86.26 62.1 157.9 144 172.1v35.05H112c-8.836 0-16 7.162-16 16v32c0 8.836 7.164 16 16 16H160v48c0 8.836 7.164 16 16 16h32c8.838 0 16-7.164 16-16v-48h48c8.838 0 16-7.164 16-16v-32c0-8.838-7.162-16-16-16H224v-35.05C305.9 333.9 368 262.3 368 176zM192 272c-52.93 0-96-43.07-96-96c0-52.94 43.07-96 96-96c52.94 0 96 43.06 96 96C288 228.9 244.9 272 192 272z"></path>
  </symbol>
  <symbol id="genderless" viewBox="0 0 384 512">
    <path d="M192 80C94.83 80 16 158.8 16 256c0 97.17 78.83 176 176 176s176-78.83 176-176C368 158.8 289.2 80 192 80zM192 352c-52.95 0-96-43.05-96-96c0-52.95 43.05-96 96-96s96 43.05 96 96C288 308.9 244.1 352 192 352z"></path>
  </symbol>
  <symbol id="alpha" viewBox="0 0 64 64">
    <path fill-rule="evenodd" clip-rule="evenodd" d="M32 2C33.9972 2 42.6517 16.6615 43.9831 16.6615C45.3146 16.6615 49.9747 11.3301 49.9747 11.3301C49.9747 11.3301 58.6292 39.3202 57.9635 43.3188C57.2977 47.3174 39.323 62.6454 32 61.9789C24.677 62.6454 6.70226 47.3174 6.03653 43.3188C5.3708 39.3202 14.0253 11.3301 14.0253 11.3301C14.0253 11.3301 18.6854 16.6615 20.0169 16.6615C21.3483 16.6615 30.0028 2 32 2ZM49.309 32.6559C42.6517 39.9866 35.9944 44.6517 35.9944 44.6517C35.9944 44.6517 41.9859 47.3174 44.6489 46.651C47.3118 45.9845 49.309 32.6559 49.309 32.6559ZM14.691 32.6559C21.3483 39.9866 28.0056 44.6517 28.0056 44.6517C28.0056 44.6517 22.014 47.3174 19.3511 46.651C16.6882 45.9845 14.691 32.6559 14.691 32.6559Z"/>
  </symbol>
  <symbol id="close" viewBox="0 0 320 512">
    <path d="M310.6 361.4c12.5 12.5 12.5 32.75 0 45.25C304.4 412.9 296.2 416 288 416s-16.38-3.125-22.62-9.375L160 301.3L54.63 406.6C48.38 412.9 40.19 416 32 416S15.63 412.9 9.375 406.6c-12.5-12.5-12.5-32.75 0-45.25l105.4-105.4L9.375 150.6c-12.5-12.5-12.5-32.75 0-45.25s32.75-12.5 45.25 0L160 210.8l105.4-105.4c12.5-12.5 32.75-12.5 45.25 0s12.5 32.75 0 45.25l-105.4 105.4L310.6 361.4z"></path>
  </symbol>
  <symbol id="moon" viewBox="0 0 24 24">
    <path d="M21 12.79A9 9 0 1 1 11.21 3 7 7 0 0 0 21 12.79z"></path>
  </symbol>
  <symbol id="sun" viewBox="0 0 24 24">
    <circle cx="12" cy="12" r="5"></circle>
    <line x1="12" y1="1" x2="12" y2="3"></line>
    <line x1="12" y1="21" x2="12" y2="23"></line>
    <line x1="4.22" y1="4.22" x2="5.64" y2="5.64"></line>
    <line x1="18.36" y1="18.36" x2="19.78" y2="19.78"></line>
    <line x1="1" y1="12" x2="3" y2="12"></line>
    <line x1="21" y1="12" x2="23" y2="12"></line>
    <line x1="4.22" y1="19.78" x2="5.64" y2="18.36"></line>
    <line x1="18.36" y1="5.64" x2="19.78" y2="4.22"></line>
  </symbol>
</svg>